<svg width="407.125" height="100" viewBox="-2 -2 407.125 100" xmlns="http://www.w3.org/2000/svg">
  <g id="svgGroup" stroke-linecap="round" fill-rule="nonzero" fill="#000000" stroke="#000000" stroke-width="0.5">
      <path d="M18.750 77.250L9.375 77.250L9.375 30.375L18.750 30.375L18.750 39.750L28.125 39.750L28.125 49.125L37.500 49.125L37.500 58.500L28.125 58.500L28.125 49.125L18.750 49.125L18.750 77.250ZM56.250 77.250L46.875 77.250L46.875 49.125L37.500 49.125L37.500 39.750L46.875 39.750L46.875 30.375L56.250 30.375L56.250 77.250ZM84.375 77.250L75 77.250L75 30.375L84.375 30.375L84.375 77.250ZM112.500 77.250L103.125 77.250L103.125 30.375L112.500 30.375L112.500 39.750L121.875 39.750L121.875 49.125L131.250 49.125L131.250 58.500L140.625 58.500L140.625 30.375L150 30.375L150 77.250L140.625 77.250L140.625 67.875L131.250 67.875L131.250 58.500L121.875 58.500L121.875 49.125L112.500 49.125L112.500 77.250ZM178.125 77.250L168.750 77.250L168.750 30.375L178.125 30.375L178.125 77.250ZM234.375 49.125L225 49.125L225 39.750L206.250 39.750L206.250 30.375L225 30.375L225 39.750L234.375 39.750L234.375 49.125ZM225 77.250L206.250 77.250L206.250 67.875L196.875 67.875L196.875 39.750L206.250 39.750L206.250 67.875L225 67.875L225 77.250ZM234.375 67.875L225 67.875L225 58.500L234.375 58.500L234.375 67.875ZM262.500 77.250L253.125 77.250L253.125 30.375L262.500 30.375L262.500 49.125L281.250 49.125L281.250 30.375L290.625 30.375L290.625 77.250L281.250 77.250L281.250 58.500L262.500 58.500L262.500 77.250ZM318.750 77.250L309.375 77.250L309.375 39.750L318.750 39.750L318.750 30.375L337.500 30.375L337.500 39.750L346.875 39.750L346.875 77.250L337.500 77.250L337.500 58.500L318.750 58.500L318.750 77.250ZM318.750 40.125L318.750 49.125L337.500 49.125L337.500 40.125L318.750 40.125ZM384.375 77.250L375 77.250L375 39.750L365.625 39.750L365.625 30.375L393.750 30.375L393.750 39.750L384.375 39.750L384.375 77.250Z" />
  </g>
</svg>